<?xml version="1.0" encoding="UTF-8"?>
<svg width="179px" height="53px" viewBox="0 0 179 53" version="1.1" xmlns="http://www.w3.org/2000/svg" xmlns:xlink="http://www.w3.org/1999/xlink">
    <title>Group 3</title>
    <g id="Page-1" stroke="none" stroke-width="1" fill="none" fill-rule="evenodd">
        <g id="Desktop-HD" transform="translate(-67.000000, -36.000000)">
            <g id="Group-3" transform="translate(67.000000, 36.520000)">
                <g id="Group-2">
                    <polygon id="x" fill="#33FF00" fill-rule="nonzero" points="144.99 51.48 132.347526 27.1350192 133 25.74 146.53 51.48 178.32 51.48 166.33 25.74 178.32 1.42108547e-14 154.23 1.42108547e-14 166.853489 24.6278857 166.33 25.74 152.8 1.42108547e-14 121.01 1.42108547e-14 133 25.74 121.01 51.48"></polygon>
                    <g id="Group" transform="translate(0.000000, 4.480000)">
                        <rect id="Rectangle-Copy-4" stroke="#FFFFFF" stroke-width="0.8" x="119.4" y="27.4" width="7.2" height="7.2"></rect>
                        <path d="M12.3824432,34.9689745 L12.5388446,34.9682674 C13.5039699,34.9636543 17.1184602,34.9434488 18.9985632,34.9332495 C19.636072,34.9294095 20.1503068,34.4113151 20.1503068,33.7731604 L20.1503068,31.1461279 C20.1503068,30.5060524 19.6322124,29.9873312 18.9921468,29.9860381 L12.3044858,29.9751057 C8.51349394,29.8377254 6.00329951,27.113751 6.00329951,23.0486156 C6.00329951,18.9828926 8.51349394,16.2595452 12.3044858,16.1221263 L18.992146,16.1106048 C19.6322116,16.1093117 20.1503068,15.5905897 20.1503068,14.9511412 L20.1503068,12.3305348 C20.1503068,11.6897932 19.6309284,11.1704443 18.9908628,11.1704443 L12.304485,11.1704443 C4.93886673,11.1704443 0,15.938546 0,23.0486141 C0,30.2011187 4.93886673,34.9692204 12.304485,34.9692204 C12.3165313,34.9692204 12.3429504,34.9692204 12.3824432,34.9689745 Z" id="C" fill="#FFFFFF" fill-rule="nonzero"></path>
                        <path d="M66.2451861,33.5434045 C66.6708448,33.5434045 67.0162542,33.1980344 67.0162542,32.7723757 L67.0162542,29.5463331 C67.0162542,29.1200467 66.6708448,28.7746766 66.2451861,28.7746766 L61.2170968,28.7746766 C60.9814816,28.7746766 60.7901842,28.5840062 60.7901842,28.348391 L60.7901842,1.1066095 C60.7901842,0.680950737 60.4447749,0.335541405 60.0191162,0.335541405 L55.7710688,0.335541405 C55.3447817,0.335541405 54.9999992,0.680950737 54.9999992,1.1066095 L54.9999992,32.7723757 C54.9999992,33.1980344 55.3447817,33.5434045 55.7710681,33.5434045 L66.2451861,33.5434045 Z" id="l" fill="#FFFFFF" fill-rule="nonzero"></path>
                        <path d="M83.624315,24 L83.624315,18.7692346 C83.624315,18.3770399 83.9423632,18.0581986 84.3346041,18.0581986 L88.7435113,18.0581986 C89.1364983,18.0581986 89.4545466,17.7401964 89.4545466,17.3480024 L89.4545466,13.140908 C89.4545466,12.7487133 89.1364983,12.4306651 88.7435113,12.4306651 L84.3346041,12.4306651 C83.9423632,12.4306651 83.624315,12.1126168 83.624315,11.7196758 L83.624315,8.95364507 C83.624315,8.56145032 83.3063604,8.24344892 82.9133734,8.24344892 L77.4394518,8.24344892 C77.0464647,8.24344892 76.7285102,8.56145107 76.7285102,8.95364507 L76.7285102,11.7196758 C76.7285102,12.1126168 76.4104619,12.4306651 76.0182211,12.4306651 L71.7110368,12.4306651 C71.3180497,12.4306651 71.0000015,12.7487133 71.0000015,13.1409073 L71.0000015,17.3480017 C71.0000015,17.7401964 71.3180497,18.0581978 71.7110368,18.0581978 L76.0182204,18.0581986 C76.4104612,18.0581986 76.7285094,18.3770399 76.7285094,18.7692346 L76.7285094,24 L83.624315,24 Z" id="t" fill="#FFFFFF" fill-rule="nonzero"></path>
                        <path d="M37.7764337,34.9999992 C45.4322708,34.9999992 50.5024724,30.436641 50.5024724,23.5927697 L50.5024724,20.5759767 L43.6066668,20.5759767 L43.6066652,23.2372521 C43.6066652,26.3656602 41.1372183,28.9764468 38.0103963,29.0651044 C34.3300695,29.1691136 31.8958056,26.8121217 31.8958056,23.2372513 L31.8958056,20.5759767 L25,20.5759767 L25,23.5927697 C25,30.436641 30.0702016,34.9999992 37.7764337,34.9999992 Z" id="u" fill="#FFFFFF" fill-rule="nonzero"></path>
                        <path d="M103.776434,34.9999992 C111.432271,34.9999992 116.502472,30.436641 116.502472,23.5927697 L116.502472,20.5759767 L109.606667,20.5759767 L109.606665,23.2372521 C109.606665,26.3656602 107.137218,28.9764468 104.010396,29.0651044 C100.330069,29.1691136 97.8958056,26.8121217 97.8958056,23.2372513 L97.8958056,20.5759767 L91,20.5759767 L91,23.5927697 C91,30.436641 96.0702016,34.9999992 103.776434,34.9999992 Z" id="u" fill="#FFFFFF" fill-rule="nonzero"></path>
                        <path d="M125.895059,24 L125.895059,23.2645131 C125.895059,14.5139386 133.349875,16.5536753 135.313133,16.4374399 C135.577613,16.4213881 135.780966,16.2004433 135.780966,15.934423 L135.780966,10.8183062 C135.780966,10.4123467 135.451439,10.0828193 135.045573,10.0828193 L130.357535,10.0828193 C127.982251,10.0828193 125.98913,11.8771618 125.742941,14.2402664 L125.661936,11.3053188 C125.650457,10.9069652 125.324756,10.5897101 124.926449,10.5897101 L119.735486,10.5897101 C119.328687,10.5897101 118.999999,10.9192368 118.999999,11.3251495 L118.999999,24 L125.895059,24 Z" id="r" fill="#FFFFFF" fill-rule="nonzero"></path>
                        <path d="M159.164241,27.7627024 C159.347211,27.2401411 158.941478,26.6918744 158.387431,26.6918744 L154.247846,26.6918744 L154.242066,26.6892882 C154.24142,26.6899544 154.240146,26.6912082 154.2395,26.6918744 L154.23564,26.6918744 L154.236933,26.6944213 C152.874613,28.3514077 150.961479,29.4139288 148.622686,29.4139288 C145.618153,29.4139288 143.938694,27.7832748 143.310805,25.1292444 C143.190764,24.6220824 143.587505,24.1347866 144.108813,24.1347866 L159.004388,24.1347866 C159.421681,24.1347866 159.77479,23.8189219 159.814582,23.402941 C159.865953,22.8585142 159.904471,22.2537443 159.904471,21.7080637 C159.904471,14.7680951 155.306509,10.1701316 148.452549,10.1701316 C141.554958,10.1701316 136.999999,14.9812179 136.999999,22.2184388 C136.999999,29.2861484 141.682718,33.9695331 148.70807,33.9695331 C148.70807,33.9695331 148.715832,33.9697646 148.730944,33.9700256 L148.906529,33.9703263 C150.171089,33.9576331 157.115352,33.6186057 159.164241,27.7627024 Z M152.851515,20.2179639 L144.10754,20.2179639 C143.586233,20.2179639 143.192686,19.7300804 143.308887,19.2216245 C143.966301,16.3486713 145.69133,14.7256973 148.45255,14.7256973 C151.256793,14.7256973 153.020987,16.3550975 153.65207,19.2383169 C153.761864,19.7416397 153.366397,20.2179639 152.851515,20.2179639 Z" id="E" fill="#000000" fill-rule="nonzero"></path>
                        <line x1="126.5" y1="27.5" x2="119.5" y2="34.5" id="Path-2-Copy-2" stroke="#FFFFFF" stroke-width="0.8" stroke-linecap="round"></line>
                    </g>
                </g>
                <g id="Group-2-Copy-2" transform="translate(77.000000, 31.480000)" stroke="#FFFFFF" stroke-width="0.8">
                    <rect id="Rectangle-Copy-2" x="0.4" y="0.4" width="6.2" height="7.2"></rect>
                    <line x1="6.5625" y1="0.5" x2="0.4375" y2="7.5" id="Path-2-Copy" stroke-linecap="round"></line>
                </g>
                <g id="Group-2-Copy-3" transform="translate(25.000000, 14.480000)" stroke="#FFFFFF" stroke-width="0.8">
                    <rect id="Rectangle-Copy-2" x="0.4" y="0.4" width="6.2" height="7.2"></rect>
                    <line x1="6.5625" y1="0.5" x2="0.4375" y2="7.5" id="Path-2-Copy" stroke-linecap="round"></line>
                </g>
            </g>
        </g>
    </g>
</svg>