<?xml version="1.0" encoding="UTF-8"?>
<svg width="1440px" height="328px" viewBox="0 0 1440 328" version="1.1" xmlns="http://www.w3.org/2000/svg" xmlns:xlink="http://www.w3.org/1999/xlink">
    <title>The Culture Exchange</title>
    <defs>
        <linearGradient x1="50%" y1="0%" x2="50%" y2="100%" id="linearGradient-1">
            <stop stop-color="#000000" offset="0%"></stop>
            <stop stop-color="#252525" offset="50.704764%"></stop>
            <stop stop-color="#000000" stop-opacity="0.657752404" offset="100%"></stop>
        </linearGradient>
        <rect id="path-2" x="0" y="0" width="1440" height="328"></rect>
    </defs>
    <g id="Page-1" stroke="none" stroke-width="1" fill="none" fill-rule="evenodd">
        <g id="Desktop-HD" transform="translate(0.000000, -289.000000)">
            <g id="The-Culture-Exchange" transform="translate(0.000000, 289.000000)">
                <mask id="mask-3" fill="white">
                    <use xlink:href="#path-2"></use>
                </mask>
                <use id="Mask" fill="url(#linearGradient-1)" xlink:href="#path-2"></use>
                <path d="M185.129665,148.997222 L185.129665,106.984847 C185.077813,99.7256903 180.826019,93.8211446 171.849293,91.7017295 C161.569809,89.2776885 144.886711,96.4785136 143.920984,90.5804485 C143.379854,87.2576331 152.534274,86.3725926 161.198178,84.3802164 L161.950077,84.204089 C165.57588,83.3384818 169.062882,82.2591196 171.654855,80.702808 C180.689914,75.2843671 184.980595,69.4446339 185.116703,63.8900826 L185.136147,43.5774061 L229.164234,43.5774061 L229.164234,40.0580111 L107.443722,40.0580111 L107.443722,43.5838891 L152.269018,43.5838891 L152.269018,53.2930117 C152.269018,53.2930117 151.964392,65.5233953 151.964392,66.644674 C151.964392,76.0426902 139.422902,80.8583647 139.422902,88.9601039 C139.422902,98.8182981 153.046785,95.29242 151.893096,105.325613 L151.957911,143.617666 L151.970872,148.997222 L185.129665,148.997222 Z M272.050277,148.997224 L272.050277,106.98485 C272.01787,102.026587 270.021602,97.7034999 265.905918,94.7868736 L314.082093,94.7868736 L314.082093,148.770374 L344.680736,148.770374 L344.680736,40.0580134 L314.082095,40.0580134 L314.082095,91.2545151 L254.284789,91.1961831 C252.72407,91.1649284 251.101872,91.2519263 249.471965,91.4019679 L248.773119,91.4699703 C240.152054,92.3523006 231.530211,94.7756408 230.84808,90.5869338 C230.063832,85.7647811 249.644113,86.0694069 258.575468,80.7028151 C267.610526,75.2843718 271.901208,69.4446387 272.037316,63.8900874 L272.05676,40.0580134 L239.18963,40.0580134 L239.18963,53.2930141 C239.18963,53.2930141 238.885004,65.5233977 238.885004,66.6446764 C238.885004,76.0426926 226.343514,80.8583671 226.343514,88.9601063 C226.343514,93.6075407 229.114951,95.2804333 232.044756,96.8016872 L232.578612,97.0772362 C235.69616,98.68219 238.813709,100.309019 238.813709,105.325615 L238.878524,143.617669 L238.891485,148.997224 L272.050277,148.997224 Z M461.342521,148.997219 L461.342521,145.160235 L416.614446,145.302826 C393.18422,145.302826 381.167723,134.990934 381.167723,120.764282 C381.167723,99.2006975 420.224583,112.351437 428.034657,99.1293997 C432.351263,91.8119106 431.035542,84.1120196 412.414508,73.2945794 C393.786994,62.4836197 396.191588,43.7588827 418.422757,43.7588827 L461.342521,43.9533275 L461.342521,40.258934 L390.183337,40.258934 C364.679065,40.258934 362.332802,71.2594256 387.77874,75.7056593 C409.802506,79.5491242 420.820869,82.9129649 424.431003,87.1193878 C427.58744,90.7943349 425.63006,93.7239222 423.225466,93.7239222 C418.980155,93.7239222 411.208966,85.3110766 391.985163,85.3110766 C363.149455,85.3110766 354.736612,101.533997 354.736612,115.352322 C354.736612,130.376185 362.546689,148.997219 408.810852,148.997219 L461.342521,148.997219 Z M592.560905,150.377311 C619.095479,150.377311 641.851405,136.352117 651.450539,116.402163 L620.850962,116.402163 C615.828846,134.984145 604.511578,147.972859 592.560905,147.972859 C580.56354,147.972854 569.149783,134.881428 564.132336,116.181167 C564.132336,116.174943 564.126112,116.168718 564.126112,116.162494 C563.203576,111.566687 565.908256,109.060903 568.745943,106.683908 L569.24738,106.265376 L569.24738,106.265376 L569.747312,105.847123 C572.319053,103.682742 574.659624,101.433614 574.120542,97.613195 C572.953332,89.3353413 561.125604,93.775408 562.285032,83.7358466 C562.285032,83.717172 562.285032,83.703166 562.292814,83.6844914 C565.655935,60.3247277 578.716237,42.903729 592.560905,42.903729 C604.505354,42.903729 615.828846,55.8924429 620.858744,74.4744251 L651.657524,74.4744251 C642.181336,54.2910294 619.290014,40.0650734 592.560905,40.0650734 C535.446984,40.0650734 512.074772,90.2239783 542.32263,97.3532966 C552.60186,99.7779811 569.285181,92.5770729 570.245406,98.4753731 C571.035996,103.296728 558.280724,103.446132 549.011521,108.209905 C514.479224,125.968616 552.401099,150.377311 592.560905,150.377311 Z M708.66348,148.997219 C737.654739,148.997219 762.556241,142.120464 762.556241,119.552262 L762.556241,106.984847 C762.517353,99.7321709 758.259078,93.8211422 749.282352,91.70821 C739.002866,89.2841714 722.319768,96.4849965 721.354041,90.5869314 C720.569793,85.7647787 740.150074,86.0694046 749.081429,80.7028127 C758.116487,75.2843694 762.407169,69.4446363 762.543277,63.890085 L762.562721,40.0580087 L729.695591,40.0580087 L729.695591,53.2930117 C729.695591,53.2930117 729.390965,65.5233953 729.390965,66.644674 C729.390965,76.0426902 716.849475,80.8583647 716.849475,88.9601039 C716.849475,93.6075383 719.620912,95.2804309 722.550717,96.8016848 L723.084573,97.0772338 C726.202121,98.6821877 729.31967,100.309016 729.31967,105.325613 L729.345597,120.803173 C729.22245,131.309507 726.111381,145.91208 708.721812,145.91208 C696.802534,145.91208 689.64708,134.226133 689.64708,123.337395 L689.64708,40.0580087 L660.545637,40.0580087 L660.545637,123.330912 C660.545637,141.5501 683.230503,148.997219 708.66348,148.997219 Z M866.808761,149.003113 L866.808761,145.47814 L814.880364,145.478138 L814.880364,106.991333 C814.829006,99.7328429 810.577248,93.8283162 801.600626,91.7148877 C798.61965,91.0117292 795.100089,91.118083 791.581452,91.479714 L790.853648,91.5579949 C782.488128,92.4959323 774.338475,94.6626383 773.671624,90.5928111 C772.88726,85.7714563 792.468376,86.0764883 801.399867,80.7088777 C810.434073,75.2914674 814.724738,69.4507487 814.861691,63.9026115 L814.880366,40.065071 L782.013288,40.065071 L782.013288,53.2996751 C782.013288,53.2996751 781.992252,56.1544887 781.946326,59.2317127 L781.936103,59.8935627 C781.886602,62.9891289 781.811937,66.1190766 781.708256,66.6510025 C779.641517,77.5340674 768.395838,81.2084446 768.395838,89.3104379 C768.395838,94.2580265 771.259651,95.4490699 774.323908,96.4916307 L774.998725,96.719514 C775.148937,96.770253 775.299161,96.8212669 775.44909,96.8729744 L775.897678,97.030597 C778.952743,98.127629 781.75353,99.6921891 781.636669,105.33234 L781.702032,143.62461 L781.714483,149.003113 L866.808761,149.003113 Z M922.183873,148.997222 L922.183873,106.984847 C922.132021,99.7256903 917.880227,93.8211446 908.903501,91.7017295 C904.894502,90.7563535 899.911514,91.2749197 895.26673,91.9094774 L894.554994,92.007835 C887.585967,92.9804416 881.544971,94.0603069 880.975192,90.5804485 C880.434062,87.2576331 889.588482,86.3725926 898.252386,84.3802164 L899.004285,84.204089 C902.630088,83.3384818 906.11709,82.2591196 908.709063,80.702808 C917.744122,75.2843671 922.034803,69.4446339 922.170911,63.8900826 L922.190355,43.5774061 L966.218442,43.5774061 L966.218442,40.0580111 L844.49793,40.0580111 L844.49793,43.5838891 L889.323226,43.5838891 L889.323226,53.2930117 C889.323226,53.2930117 889.0186,65.5233953 889.0186,66.644674 C889.0186,76.0426902 876.47711,80.8583647 876.47711,88.9601039 C876.47711,93.3836526 879.220249,95.1123478 882.140501,96.5804586 L882.642372,96.8300363 C886.077136,98.524248 889.55373,100.051755 888.947304,105.325613 L889.012119,143.617666 L889.02508,148.997222 L922.183873,148.997222 Z M1019.91948,148.997219 C1048.91074,148.997219 1073.81224,142.120464 1073.81224,119.552262 L1073.81224,106.984847 C1073.77335,99.7321709 1069.51508,93.8211422 1060.53835,91.70821 C1050.25887,89.2841714 1033.57577,96.4849965 1032.61004,90.5869314 C1031.82579,85.7647787 1051.40607,86.0694046 1060.33743,80.7028127 C1069.37249,75.2843694 1073.66317,69.4446363 1073.79928,63.890085 L1073.81872,40.0580087 L1040.95159,40.0580087 L1040.95159,53.2930117 C1040.95159,53.2930117 1040.64697,65.5233953 1040.64697,66.644674 C1040.64697,76.0426902 1028.10548,80.8583647 1028.10548,88.9601039 C1028.10548,93.6075383 1030.87691,95.2804309 1033.80672,96.8016848 L1034.34057,97.0772338 C1037.45812,98.6821877 1040.57567,100.309016 1040.57567,105.325613 L1040.6016,120.803173 C1040.47845,131.309507 1037.36738,145.91208 1019.97781,145.91208 C1008.05853,145.91208 1000.90308,134.226133 1000.90308,123.337395 L1000.90308,40.0580087 L971.801637,40.0580087 L971.801637,123.330912 C971.801637,141.5501 994.486503,148.997219 1019.91948,148.997219 Z M1194.07148,148.822223 L1194.07148,116.143053 C1194.07148,114.723629 1193.9937,113.284758 1193.81222,111.832927 C1192.24372,99.0062575 1183.20218,85.194415 1157.30255,85.194415 C1138.08522,85.194415 1133.15289,93.5165188 1128.90758,93.5165188 C1126.50298,93.5165188 1124.55208,90.5869314 1127.70852,86.9119843 C1131.31217,82.7055615 1142.80368,77.7667424 1164.34782,75.4982558 C1175.76155,74.2927183 1185.36697,67.0854102 1185.36697,56.2809335 C1185.36697,45.4764543 1179.35872,40.064494 1161.94323,40.064494 L1087.27761,40.064494 L1087.27761,148.776855 L1114.60315,148.776855 L1114.60315,43.7588851 L1133.76214,43.7588851 C1155.98683,43.7588851 1158.33309,62.2826992 1139.71854,73.1001394 C1121.0975,83.9110991 1119.78178,91.61099 1124.09839,98.9284791 C1127.1064,104.019353 1133.65055,104.589258 1140.55896,104.981932 L1141.62423,105.041531 L1141.62423,105.041531 L1142.69269,105.101848 C1152.85004,105.689405 1163.09056,106.850035 1163.51172,122.144821 L1163.51172,148.822223 L1194.07148,148.822223 Z M1307.02507,148.997219 L1307.02507,145.160235 L1262.297,145.302826 C1238.86677,145.302826 1226.85027,134.990934 1226.85027,120.764282 C1226.85027,109.119947 1238.23926,107.598308 1249.94692,106.580347 L1251.24852,106.468824 C1260.79497,105.659023 1270.28078,104.947096 1273.71721,99.1293997 C1278.03382,91.8119106 1276.71809,84.1120196 1258.09706,73.2945794 C1239.46955,62.4836197 1241.87414,43.7588827 1264.10531,43.7588827 L1307.02507,43.9533275 L1307.02507,40.258934 L1235.86589,40.258934 C1210.36162,40.258934 1208.01535,71.2594256 1233.46129,75.7056593 C1255.48506,79.5491242 1266.50342,82.9129649 1270.11356,87.1193878 C1273.26999,90.7943349 1271.31261,93.7239222 1268.90802,93.7239222 C1264.66271,93.7239222 1256.89152,85.3110766 1237.66772,85.3110766 C1208.83201,85.3110766 1200.41916,101.533997 1200.41916,115.352322 C1200.41916,130.376185 1208.22924,148.997219 1254.4934,148.997219 L1307.02507,148.997219 Z M217.784701,326.997219 L217.784701,323.160235 L173.056626,323.302826 C149.6264,323.302826 137.609903,312.990934 137.609903,298.764282 C137.609903,287.119947 148.998883,285.598308 160.706551,284.580347 L162.008152,284.468824 C171.554594,283.659023 181.040404,282.947096 184.476837,277.1294 C188.793443,269.811911 187.477722,262.11202 168.856688,251.294579 C150.229174,240.48362 152.633768,221.758883 174.864937,221.758883 L217.784701,221.953327 L217.784701,218.258934 L146.625517,218.258934 C121.121245,218.258934 118.774982,249.259426 144.22092,253.705659 C147.557854,254.288002 150.642139,254.859335 153.486287,255.424256 L154.611168,255.649893 C169.810325,258.729228 177.882971,261.63528 180.873183,265.119388 C184.02962,268.794335 182.07224,271.723922 179.667646,271.723922 C175.422335,271.723922 167.651146,263.311077 148.427343,263.311077 C119.591635,263.311077 111.178792,279.533997 111.178792,293.352322 C111.178792,308.376185 118.988869,326.997219 165.253032,326.997219 L217.784701,326.997219 Z M251.254892,326.996887 L285.326529,284.985109 C288.470214,281.077289 290.096526,277.511851 289.793052,274.724553 C292.132141,276.792848 294.374741,279.734217 296.51307,283.856803 C299.501127,289.615817 297.198611,294.557784 295.212992,299.422715 L294.956256,300.056895 C293.093466,304.705238 291.74368,309.312535 295.8143,314.526412 L305.937901,326.996887 L338.915474,326.996887 C336.588836,324.209586 305.411878,268.949196 280.032064,268.949196 C278.061497,268.876678 275.858427,268.956608 273.620708,269.090772 L272.948551,269.13255 C272.387883,269.168557 271.826287,269.20734 271.266853,269.247364 L270.596768,269.29589 C262.684398,269.874838 255.457448,270.580244 257.767917,267.017857 C260.891373,262.196502 279.888884,264.068706 293.176403,258.702654 C306.605542,253.283686 315.627297,247.444522 320.268126,241.890159 L339.622024,218.057284 L306.754946,218.057284 C306.754946,218.057284 302.037222,223.791575 296.983923,229.934551 L296.337335,230.720571 L296.337335,230.720571 L295.041326,232.296082 L295.041326,232.296082 L294.395957,233.080649 C289.569873,238.9477 285.119931,244.358419 284.892325,244.63855 C280.498948,250.05596 273.316716,253.316366 266.764777,256.660813 C272.499669,249.914338 263.004806,232.901084 259.324205,228.272706 C256.996009,225.479184 250.968537,218.057284 250.968537,218.057284 L218.101459,218.057284 L233.080654,236.510098 C241.363177,246.336449 250.64483,249.660664 257.858189,250.801417 C265.079327,251.949952 265.136909,257.062333 261.507663,259.519698 L261.507663,259.525922 C258.804405,261.14601 256.42641,262.9155 254.695827,265.041379 C250.477248,270.241749 252.624195,272.251778 254.401288,274.462681 L254.621012,274.740335 C256.102631,276.648142 257.10965,278.805599 253.444577,283.326114 L222.451261,321.618383 L218.095233,326.996887 L251.254892,326.996887 Z M398.025905,328.377311 C424.560479,328.377311 447.316405,314.352117 456.915539,294.402163 L426.315962,294.402163 C421.293846,312.984145 409.976578,325.972859 398.025905,325.972859 C386.02854,325.972854 374.614783,312.881428 369.597336,294.181167 C369.597336,294.174943 369.591112,294.168718 369.591112,294.162494 C368.668576,289.566687 371.373256,287.060903 374.210943,284.683908 L374.71238,284.265376 L374.71238,284.265376 L375.212312,283.847123 C377.784053,281.682742 380.124624,279.433614 379.585542,275.613195 C378.418332,267.335341 366.590604,271.775408 367.750032,261.735847 C367.750032,261.717172 367.750032,261.703166 367.757814,261.684491 C371.120935,238.324728 384.181237,220.903729 398.025905,220.903729 C409.970354,220.903729 421.293846,233.892443 426.323744,252.474425 L457.122524,252.474425 C447.646336,232.291029 424.755014,218.065073 398.025905,218.065073 C340.911984,218.065073 317.539772,268.223978 347.78763,275.353297 C358.06686,277.777981 374.750181,270.577073 375.710406,276.475373 C376.500996,281.296728 363.745724,281.446132 354.476521,286.209905 C319.944224,303.968616 357.866099,328.377311 398.025905,328.377311 Z M505.647905,326.997224 L505.647905,284.98485 C505.615498,280.026587 503.61923,275.7035 499.503546,272.786874 L547.679721,272.786874 L547.679721,326.770374 L578.278364,326.770374 L578.278364,218.058013 L547.679723,218.058013 L547.679723,269.254515 L487.882417,269.196183 C477.849224,268.99526 465.275327,273.681307 464.445708,268.586934 C463.66146,263.764781 483.241741,264.069407 492.173096,258.702815 C501.208154,253.284372 505.498836,247.444639 505.634944,241.890087 L505.654388,218.058013 L472.787258,218.058013 L472.787258,231.293014 C472.787258,231.293014 472.482632,243.523398 472.482632,244.644676 C472.482632,254.042693 459.941142,258.858367 459.941142,266.960106 C459.941142,271.607541 462.712579,273.280433 465.642384,274.801687 L466.17624,275.077236 C469.293788,276.68219 472.411337,278.309019 472.411337,283.325615 L472.476152,321.617669 L472.489113,326.997224 L505.647905,326.997224 Z M722.543117,327.010185 L718.90058,316.892736 C713.203438,301.129994 699.631406,284.284859 674.924347,284.284859 C656.588495,284.284859 650.975612,292.898627 647.877507,293.540284 C645.628464,294.006945 642.893317,292.522706 644.571996,288.847759 C646.490488,284.641336 655.998687,277.829393 675.786371,276.215527 C687.653797,275.2498 692.890759,267.88046 688.988962,257.075983 L674.645644,218.064494 L630.403673,218.064494 L585.688559,326.776855 L614.6863,326.776855 L650.729311,239.148457 L657.191257,256.609322 C659.077342,262.176837 657.644954,269.105444 651.513559,273.888708 C637.656348,284.699668 639.179474,292.399559 645.939563,299.717048 C651.010993,305.202249 658.100377,305.443054 665.388263,305.864686 L666.430544,305.926735 C676.167432,306.528275 686.103186,307.910564 691.92503,322.93339 L691.918547,322.939873 L693.389822,327.010185 L722.543117,327.010185 Z M809.89093,327.003111 C843.236906,327.003111 843.903826,310.663582 843.917436,278.844338 L843.917436,218.057284 L812.412104,218.057284 L812.412104,277.958503 C812.412104,278.248447 812.412079,278.536627 812.411959,278.822995 L812.41124,279.676616 C812.393252,292.963399 812.006962,302.144776 803.875907,302.367198 C794.041618,302.634381 793.408415,293.957532 793.392446,280.976711 L793.392644,279.618705 C793.403949,270.465512 793.568043,259.341347 791.06928,247.768226 C787.426028,230.898152 780.32939,218.057284 760.275166,218.057284 L729.80009,218.057284 L729.80009,326.769669 L760.275166,326.769669 L760.275166,253.330372 C760.275166,234.941367 780.503693,226.347589 787.548973,251.437935 C794.594253,276.526726 758.499452,327.003111 809.89093,327.003111 Z M917.196377,328.377311 C959.195705,328.377311 980.960281,303.683817 980.960281,273.221191 C980.974287,272.735632 980.968176,272.254743 980.954057,271.775408 L917.527858,271.736496 L917.527858,275.263027 L933.218274,275.263027 C941.742021,275.263027 948.125882,283.164262 946.233445,291.47324 C941.645532,311.603723 929.777342,325.972857 917.210381,325.972857 C905.213019,325.972857 890.907693,307.067168 888.781814,294.181169 C888.781814,294.174945 888.77559,294.168721 888.77559,294.162497 C887.853054,289.56669 890.559246,287.060905 893.397721,284.683911 L893.89929,284.265379 L893.89929,284.265379 L894.399335,283.847125 C896.971612,281.682745 899.311899,279.433617 898.77002,275.613197 C898.264435,272.022803 895.752744,270.82498 893.164395,269.800495 L892.732625,269.630972 C889.493986,268.365879 886.303055,267.178985 886.928286,261.735849 C886.928286,261.717174 886.928286,261.703168 886.936068,261.684494 C890.29919,238.32473 903.359491,220.903731 917.204159,220.903731 C929.175064,220.903731 940.517234,233.9438 945.526899,252.584922 L977.058689,252.584922 C968.872655,232.342387 948.093204,218.065073 917.196377,218.065073 C860.088683,218.065073 836.7118,268.223978 866.965882,275.353297 C870.563613,276.201936 874.945844,275.871441 879.163874,275.336136 L879.885179,275.242545 C887.438278,274.242591 894.283716,272.759444 894.888658,276.475373 C895.679248,281.296728 882.916197,281.446132 873.654775,286.209905 C839.122479,303.968616 877.044353,328.377311 917.196377,328.377311 Z M1092.41406,326.997219 L1092.41406,323.160235 L1047.68599,323.302826 C1024.25576,323.302826 1012.23926,312.990934 1012.23926,298.764282 C1012.23926,287.119947 1023.62824,285.598308 1035.33591,284.580347 L1036.63751,284.468824 C1046.18395,283.659023 1055.66976,282.947096 1059.1062,277.1294 C1063.4228,269.811911 1062.10708,262.11202 1043.48605,251.294579 C1024.85853,240.48362 1027.26313,221.758883 1049.4943,221.758883 L1092.41406,221.953327 L1092.41406,218.258934 L1021.25488,218.258934 C995.750605,218.258934 993.404342,249.259426 1018.85028,253.705659 C1040.87405,257.549124 1051.89241,260.912965 1055.50254,265.119388 C1058.65898,268.794335 1056.7016,271.723922 1054.29701,271.723922 C1050.05169,271.723922 1042.28051,263.311077 1023.0567,263.311077 C994.220995,263.311077 985.808152,279.533997 985.808152,293.352322 C985.808152,308.376185 993.618229,326.997219 1039.88239,326.997219 L1092.41406,326.997219 Z" id="TheCultureExchange" fill="#121212" fill-rule="nonzero" mask="url(#mask-3)"></path>
            </g>
        </g>
    </g>
</svg>