<?xml version="1.0" encoding="UTF-8"?>
<svg width="385px" height="291px" viewBox="0 0 385 291" version="1.1" xmlns="http://www.w3.org/2000/svg" xmlns:xlink="http://www.w3.org/1999/xlink">
    <title>Group 7</title>
    <g id="Page-1" stroke="none" stroke-width="1" fill="none" fill-rule="evenodd">
        <g id="Desktop-HD-Copy" transform="translate(-840.000000, -96.000000)" fill="#FFFFFF" fill-rule="nonzero">
            <g id="Group-7" transform="translate(840.000000, 96.000000)">
                <g id="DIAPER`" transform="translate(3.235400, 216.289893)">
                    <path d="M49.5783203,73.7101074 C55.6343262,73.7101074 59.8721476,71.8297038 62.2917847,68.0688965 C64.7114217,64.3080892 65.9212402,58.9710612 65.9212402,52.0578125 L65.9212402,17.8787109 C65.9212402,12.265153 64.5938965,7.99967855 61.939209,5.0822876 C59.2845215,2.16489665 55.3301432,0.706201172 50.0760742,0.706201172 L4.54747351e-13,0.706201172 L4.54747351e-13,73.7101074 L49.5783203,73.7101074 Z M14.6837402,60.8099854 L14.6837402,13.4818848 L46.3014404,13.4818848 C48.2924561,13.4818848 49.6128866,13.8344604 50.2627319,14.5396118 C50.9125773,15.2447632 51.2375,16.8140706 51.2375,19.2475342 L51.2375,56.9109131 C51.2375,59.5102946 49.8963298,60.8099854 47.2139893,60.8099854 L14.6837402,60.8099854 Z M85.3336426,73.7101074 L85.3336426,0.706201172 L71.2306152,0.706201172 L71.2306152,73.7101074 L85.3336426,73.7101074 Z M103.335742,73.7101074 L104.248291,61.9299316 L113.041943,61.9299316 L114.078931,73.7101074 L127.891602,73.7101074 L120.964526,0.706201172 L96.2012695,0.706201172 L89.1497559,73.7101074 L103.335742,73.7101074 Z M111.921997,50.2741943 L105.285278,50.2741943 L108.064404,13.1500488 L108.728076,13.1500488 L111.921997,50.2741943 Z M146.723291,73.7101074 L146.723291,44.7989014 L212.654858,44.7989014 C216.692196,44.7989014 219.810071,43.900179 222.008484,42.1027344 C224.206897,40.3052897 225.734725,37.7681274 226.591968,34.4912476 C227.449211,31.2143677 227.877832,27.3636882 227.877832,22.939209 C227.877832,18.3488118 227.366252,14.3944336 226.343091,11.0760742 C225.31993,7.75771484 223.626184,5.19981283 221.261853,3.40236816 C218.897522,1.6049235 215.696688,0.706201172 211.659351,0.706201172 L132.371387,0.706201172 L132.371387,73.7101074 L146.723291,73.7101074 Z M146.723291,31.6913818 L146.723291,14.0211182 L208.340991,14.0211182 C210.553231,14.0211182 211.95662,14.7746623 212.55116,16.2817505 C213.145699,17.7888387 213.442969,19.9250326 213.442969,22.690332 C213.442969,25.6492025 213.138786,27.8890951 212.53042,29.4100098 C211.922054,30.9309245 210.262874,31.6913818 207.552881,31.6913818 L146.723291,31.6913818 Z M262.637646,73.7101074 L262.637646,59.4826416 L247.331714,59.4826416 L247.331714,42.7664063 L261.102905,42.7664063 L261.102905,29.0366943 L247.331714,29.0366943 L247.331714,14.8092285 L261.683618,14.8092285 L261.683618,0.706201172 L232.482056,0.706201172 L232.482056,73.7101074 L262.637646,73.7101074 Z M282.215967,73.7101074 L282.215967,40.4020752 C284.151676,40.4020752 325.555066,40.6578654 326.426135,41.1694458 C327.297205,41.6810262 327.732739,43.0014567 327.732739,45.1307373 L327.732739,73.7101074 L342.126123,73.7101074 L342.126123,46.0847656 C342.126123,43.2088542 341.662935,40.8652629 340.73656,39.0539917 C339.810185,37.2427205 338.199398,36.1020345 335.904199,35.6319336 C338.697152,34.7193848 340.598295,33.0740316 341.607629,30.695874 C342.616964,28.3177165 343.121631,25.1376221 343.121631,21.1555908 C343.121631,17.0352946 342.796708,13.4473185 342.146863,10.3916626 C341.497017,7.33600667 340.218066,4.95784912 338.31001,3.25718994 C336.401953,1.55653076 333.581348,0.706201172 329.848193,0.706201172 L267.449268,0.706201172 L267.449268,73.7101074 L282.215967,73.7101074 Z M282.298926,27.7508301 L282.298926,14.2285156 L325.700244,14.2285156 C326.916976,14.2285156 327.746566,14.6709635 328.189014,15.5558594 C328.631462,16.4407552 328.852686,18.3073324 328.852686,21.1555908 C328.852686,25.552417 327.843351,27.7508301 325.824683,27.7508301 L282.298926,27.7508301 Z" id="DIAPER"></path>
                </g>
                <path d="M19.1588803,90.1875 L19.1588803,25.796875 L30.0330954,90.1875 L46.0903476,90.1875 L56.3547936,25.796875 L56.3547936,90.1875 L72.7169303,90.1875 L72.7169303,0.8125 L45.2265081,0.8125 L37.756837,55.3007812 L30.2363518,0.8125 L3,0.8125 L3,90.1875 L19.1588803,90.1875 Z M95.5832704,90.1875 L96.7011804,75.765625 L143.214037,75.765625 L144.484389,90.1875 L161.40548,90.1875 L152.919528,0.8125 L86.8432471,0.8125 L78.2048519,90.1875 L95.5832704,90.1875 Z M141.842056,61.4960938 L97.9715326,61.4960938 L101.376077,16.046875 L137.929371,16.046875 L141.842056,61.4960938 Z M185.62481,91 C192.738782,91 198.277518,89.2311198 202.241017,85.6933594 C206.204516,82.155599 208.186265,76.4596354 208.186265,68.6054688 L208.186265,51.6953125 L190.198078,51.6953125 L190.198078,67.7929688 C190.198078,69.7903646 189.884724,71.4153646 189.258017,72.6679688 C188.63131,73.9205729 187.555745,74.546875 186.031323,74.546875 C184.67628,74.546875 183.634591,74.0390625 182.906256,73.0234375 C182.177921,72.0078125 181.813753,70.2643229 181.813753,67.7929688 L181.813753,23.0546875 C181.813753,21.0572917 182.1017,19.4576823 182.677593,18.2558594 C183.253486,17.0540365 184.371396,16.453125 186.031323,16.453125 C187.454117,16.453125 188.504275,16.9186198 189.181796,17.8496094 C189.859317,18.780599 190.198078,20.5833333 190.198078,23.2578125 L190.198078,36.4609375 L207.983009,36.4609375 L207.983009,21.0234375 C207.983009,16.3177083 207.034479,12.4160156 205.13742,9.31835938 C203.240361,6.22070312 200.640373,3.89322917 197.337457,2.3359375 C194.034542,0.778645833 190.26583,0 186.031323,0 C178.273705,0 172.675686,2.30208333 169.237266,6.90625 C165.798846,11.5104167 164.079636,18.1458333 164.079636,26.8125 L164.079636,68.046875 C164.079636,75.2916667 166.052917,80.9283854 169.999477,84.9570312 C173.946038,88.9856771 179.154482,91 185.62481,91 Z M229.814076,90.1875 L229.814076,49.6640625 L238.249215,49.6640625 L238.249215,90.1875 L256.034146,90.1875 L256.034146,0.8125 L238.249215,0.8125 L238.249215,32.7539062 L229.814076,32.7539062 L229.814076,0.8125 L212.029145,0.8125 L212.029145,90.1875 L229.814076,90.1875 Z M319.824306,90.1875 L319.824306,72.7695312 L282.152588,72.7695312 L282.152588,52.3046875 L317.944185,52.3046875 L317.944185,35.4960938 L282.152588,35.4960937 L282.152588,18.078125 L318.655582,18.078125 L318.655582,0.8125 L263.961144,0.8125 L263.961144,90.1875 L319.824306,90.1875 Z M362,90.1875 L362,74.953125 L343.6053,74.953125 L343.6053,0.8125 L325.71874,0.8125 L325.71874,90.1875 L362,90.1875 Z" id="MACHEL"></path>
                <path d="M16.4258789,191 L16.4258789,138.404004 L25.3024902,191 L38.4100098,191 L46.7888672,138.404004 L46.7888672,191 L60.1452637,191 L60.1452637,117.996094 L37.7048584,117.996094 L31.607373,162.503589 L25.4684082,117.996094 L3.23540039,117.996094 L3.23540039,191 L16.4258789,191 Z M84.0374512,191.663672 C89.8722331,191.663672 94.3312785,189.900793 97.4145874,186.375037 C100.497896,182.84928 102.039551,177.754215 102.039551,171.089844 L102.039551,171.089844 L102.039551,136.412988 C102.039551,130.163411 100.511723,125.420923 97.4560669,122.185522 C94.400411,118.950122 89.9275391,117.332422 84.0374512,117.332422 C78.1473633,117.332422 73.6744914,118.950122 70.6188354,122.185522 C67.5631795,125.420923 66.0353516,130.163411 66.0353516,136.412988 L66.0353516,136.412988 L66.0353516,171.089844 C66.0353516,177.754215 67.577006,182.84928 70.6603149,186.375037 C73.7436239,189.900793 78.2026693,191.663672 84.0374512,191.663672 Z M84.1618896,178.224316 C82.8898519,178.224316 81.9773031,177.733476 81.4242432,176.751794 C80.8711833,175.770113 80.5946533,174.1455 80.5946533,171.877954 L80.5946533,171.877954 L80.5946533,136.28855 C80.5946533,132.610701 81.8113851,130.771777 84.2448486,130.771777 C86.4017822,130.771777 87.480249,132.569222 87.480249,136.164111 L87.480249,136.164111 L87.480249,171.794995 C87.480249,176.081209 86.3741292,178.224316 84.1618896,178.224316 Z M122.198584,191 L122.198584,154.498047 L129.498975,191 L143.76792,191 L143.76792,117.996094 L129.664893,117.996094 L129.664893,152.963306 L122.945215,117.996094 L107.929639,117.996094 L107.929639,191 L122.198584,191 Z M171.102905,191 L171.102905,132.016162 L179.772119,132.016162 L179.772119,117.996094 L147.83291,117.996094 L147.83291,132.016162 L156.502124,132.016162 L156.502124,191 L171.102905,191 Z M194.953613,191 L195.866162,179.219824 L204.659814,179.219824 L205.696802,191 L219.509473,191 L212.582397,117.996094 L187.819141,117.996094 L180.767627,191 L194.953613,191 Z M203.539868,167.564087 L196.903149,167.564087 L199.682275,130.439941 L200.345947,130.439941 L203.539868,167.564087 Z M238.258203,191 L238.258203,154.498047 L245.558594,191 L259.827539,191 L259.827539,117.996094 L245.724512,117.996094 L245.724512,152.963306 L239.004834,117.996094 L223.989258,117.996094 L223.989258,191 L238.258203,191 Z M283.719727,191.663672 C289.554508,191.663672 294.013554,189.900793 297.096863,186.375037 C300.180172,182.84928 301.721826,177.754215 301.721826,171.089844 L301.721826,171.089844 L301.721826,136.412988 C301.721826,130.163411 300.193998,125.420923 297.138342,122.185522 C294.082686,118.950122 289.609814,117.332422 283.719727,117.332422 C277.829639,117.332422 273.356767,118.950122 270.301111,122.185522 C267.245455,125.420923 265.717627,130.163411 265.717627,136.412988 L265.717627,136.412988 L265.717627,171.089844 C265.717627,177.754215 267.259281,182.84928 270.34259,186.375037 C273.425899,189.900793 277.884945,191.663672 283.719727,191.663672 Z M283.844165,178.224316 C282.572127,178.224316 281.659578,177.733476 281.106519,176.751794 C280.553459,175.770113 280.276929,174.1455 280.276929,171.877954 L280.276929,171.877954 L280.276929,136.28855 C280.276929,132.610701 281.49366,130.771777 283.927124,130.771777 C286.084058,130.771777 287.162524,132.569222 287.162524,136.164111 L287.162524,136.164111 L287.162524,171.794995 C287.162524,176.081209 286.056405,178.224316 283.844165,178.224316 Z M317.73291,139.399512 L321.963818,129.237036 L321.963818,117.249463 L306.450488,117.249463 L306.450488,129.610352 L311.718384,129.610352 L308.980737,139.399512 L317.73291,139.399512 Z M344.113867,191.663672 C349.920996,191.663672 354.490653,190.128931 357.822839,187.059448 C361.155025,183.989966 362.821118,179.524007 362.821118,173.661572 C362.821118,168.93291 361.84635,165.14445 359.896814,162.296191 C357.947278,159.447933 355.534554,156.986816 352.658643,154.912842 L352.658643,154.912842 L343.450195,148.193164 C341.680404,146.921126 340.795508,145.165161 340.795508,142.925269 C340.795508,140.713029 341.846322,139.606909 343.947949,139.606909 C345.192334,139.606909 346.028837,140.187622 346.457458,141.349048 C346.88608,142.510474 347.100391,143.713379 347.100391,144.957764 L347.100391,144.957764 L347.100391,147.322095 L362.447803,147.322095 L362.447803,146.160669 C362.447803,134.131616 356.41945,128.11709 344.362744,128.11709 C341.099691,128.11709 338.064775,128.683976 335.257996,129.817749 C332.451217,130.951522 330.197498,132.679834 328.496838,135.002686 C326.796179,137.325537 325.94585,140.270581 325.94585,143.837817 C325.94585,147.681584 326.595695,150.681934 327.895386,152.838867 C329.195076,154.995801 331.089307,157.042122 333.578076,158.977832 L333.578076,158.977832 L341.500659,165.075317 C343.132186,166.319702 344.514836,167.61248 345.648608,168.95365 C346.782381,170.29482 347.349268,172.320402 347.349268,175.030396 C347.349268,178.265796 346.270801,179.883496 344.113867,179.883496 C342.897135,179.883496 342.01224,179.482528 341.45918,178.680591 C340.90612,177.878654 340.62959,176.772534 340.62959,175.362231 L340.62959,175.362231 L340.62959,168.061841 L325.696973,168.061841 L325.696973,172.9979 C325.696973,185.441748 331.835937,191.663672 344.113867,191.663672 Z" id="MONTANO’s" stroke="#FFFFFF" stroke-width="2.1" fill-opacity="0"></path>
            </g>
        </g>
    </g>
</svg>